<svg xmlns="http://www.w3.org/2000/svg" xmlns:xlink="http://www.w3.org/1999/xlink" width="500" zoomAndPan="magnify" viewBox="0 0 375 374.999991" height="500" preserveAspectRatio="xMidYMid meet" version="1.0"><defs><g/></defs><rect x="-37.5" width="450" fill="#ffffff" y="-37.499999" height="449.999989" fill-opacity="1"/><rect x="-37.5" width="450" fill="#ffffff" y="-37.499999" height="449.999989" fill-opacity="1"/><rect x="-37.5" width="450" fill="#ffffff" y="-37.499999" height="449.999989" fill-opacity="1"/><g fill="#8ee0db" fill-opacity="1"><g transform="translate(33.076174, 196.171225)"><g><path d="M 43.21875 -78.453125 C 51.550781 -78.453125 59.128906 -76.519531 65.953125 -72.65625 C 72.773438 -68.789062 76.1875 -61.835938 76.1875 -51.796875 L 76.046875 -15.8125 C 75.941406 -9.488281 72.773438 -4.894531 66.546875 -2.03125 C 60.328125 0.832031 51.242188 2.265625 39.296875 2.265625 C 17.015625 2.265625 5.875 -6.421875 5.875 -23.796875 C 5.875 -31.117188 8.15625 -36.835938 12.71875 -40.953125 C 17.289062 -45.066406 24.09375 -47.125 33.125 -47.125 C 36.84375 -47.125 40.554688 -46.644531 44.265625 -45.6875 C 47.984375 -44.738281 51.195312 -43.515625 53.90625 -42.015625 L 53.90625 -46.828125 C 53.90625 -55.566406 48.285156 -59.9375 37.046875 -59.9375 C 32.722656 -59.9375 28.273438 -59.15625 23.703125 -57.59375 C 19.140625 -56.039062 15.503906 -54.160156 12.796875 -51.953125 L 12.796875 -71.828125 C 15.503906 -73.628906 19.644531 -75.179688 25.21875 -76.484375 C 30.789062 -77.796875 36.789062 -78.453125 43.21875 -78.453125 Z M 40.046875 -13.546875 C 45.273438 -13.546875 48.890625 -13.894531 50.890625 -14.59375 C 52.898438 -15.300781 53.90625 -16.710938 53.90625 -18.828125 L 53.90625 -30.5625 C 50.394531 -31.769531 46.53125 -32.375 42.3125 -32.375 C 37.394531 -32.375 33.804688 -31.644531 31.546875 -30.1875 C 29.285156 -28.726562 28.15625 -26.445312 28.15625 -23.34375 C 28.15625 -20.425781 29.332031 -18.0625 31.6875 -16.25 C 34.050781 -14.445312 36.835938 -13.546875 40.046875 -13.546875 Z M 40.046875 -13.546875 "/></g></g></g><g fill="#8ee0db" fill-opacity="1"><g transform="translate(119.204621, 196.171225)"><g><path d="M 96.671875 -78.296875 C 107.304688 -78.296875 115.179688 -76.210938 120.296875 -72.046875 C 125.421875 -67.878906 127.984375 -60.929688 127.984375 -51.203125 L 127.984375 0 L 105.5625 0 L 105.5625 -46.671875 C 105.5625 -55.410156 100.640625 -59.78125 90.796875 -59.78125 C 86.679688 -59.78125 83.21875 -58.828125 80.40625 -56.921875 C 80.601562 -54.503906 80.703125 -52.597656 80.703125 -51.203125 L 80.703125 0 L 58.28125 0 L 58.28125 -46.671875 C 58.28125 -55.410156 53.359375 -59.78125 43.515625 -59.78125 C 39.503906 -59.78125 35.789062 -58.925781 32.375 -57.21875 L 32.375 0 L 9.9375 0 L 9.9375 -69.71875 C 13.851562 -71.820312 19.828125 -73.773438 27.859375 -75.578125 C 35.890625 -77.390625 43.066406 -78.296875 49.390625 -78.296875 C 59.523438 -78.296875 67.003906 -76.488281 71.828125 -72.875 C 75.742188 -74.582031 79.882812 -75.910156 84.25 -76.859375 C 88.613281 -77.816406 92.753906 -78.296875 96.671875 -78.296875 Z M 96.671875 -78.296875 "/></g></g></g><g fill="#8ee0db" fill-opacity="1"><g transform="translate(257.130602, 196.171225)"><g><path d="M 85.671875 -76.1875 L 55.71875 1.203125 C 48.382812 20.078125 38.644531 29.515625 26.5 29.515625 C 21.28125 29.515625 16.765625 28.609375 12.953125 26.796875 L 12.953125 8.578125 C 15.960938 9.679688 18.921875 10.234375 21.828125 10.234375 C 24.835938 10.234375 27.375 9.378906 29.4375 7.671875 C 31.5 5.972656 33.128906 3.164062 34.328125 -0.75 L 3.765625 -76.1875 L 29.359375 -76.1875 L 45.46875 -26.203125 L 61.59375 -76.1875 Z M 85.671875 -76.1875 "/></g></g></g><g fill="#c9e7e5" fill-opacity="1"><g transform="translate(-0.603615, 264.990506)"><g><path d="M 34.03125 2.5 C 26.800781 2.5 21.378906 0.796875 17.765625 -2.609375 C 14.148438 -6.023438 12.34375 -10.929688 12.34375 -17.328125 L 12.34375 -48.859375 L 3.109375 -48.859375 L 3.109375 -63.078125 L 12.34375 -63.078125 L 12.34375 -80.40625 L 31.78125 -80.40625 L 31.78125 -63.078125 L 45.625 -63.078125 L 45.625 -48.859375 L 31.78125 -48.859375 L 31.78125 -19.703125 C 31.78125 -17.535156 32.238281 -15.929688 33.15625 -14.890625 C 34.070312 -13.859375 35.609375 -13.34375 37.765625 -13.34375 C 39.097656 -13.34375 40.46875 -13.566406 41.875 -14.015625 C 43.289062 -14.472656 44.539062 -15.117188 45.625 -15.953125 L 45.625 -0.125 C 42.46875 1.625 38.601562 2.5 34.03125 2.5 Z M 34.03125 2.5 "/></g></g></g><g fill="#c9e7e5" fill-opacity="1"><g transform="translate(50.873771, 264.990506)"><g><path d="M 37.890625 1.875 C 28.671875 1.875 21.421875 -0.285156 16.140625 -4.609375 C 10.867188 -8.929688 8.234375 -15.414062 8.234375 -24.0625 L 8.234375 -63.078125 L 26.796875 -63.078125 L 26.796875 -25.546875 C 26.796875 -21.566406 27.6875 -18.597656 29.46875 -16.640625 C 31.257812 -14.691406 34.109375 -13.71875 38.015625 -13.71875 C 41.921875 -13.71875 44.765625 -14.691406 46.546875 -16.640625 C 48.335938 -18.597656 49.234375 -21.566406 49.234375 -25.546875 L 49.234375 -63.078125 L 66.6875 -63.078125 L 66.6875 -24.0625 C 66.6875 -15.332031 64.171875 -8.828125 59.140625 -4.546875 C 54.117188 -0.265625 47.035156 1.875 37.890625 1.875 Z M 37.890625 1.875 "/></g></g></g><g fill="#c9e7e5" fill-opacity="1"><g transform="translate(125.784017, 264.990506)"><g><path d="M 8.234375 -56.46875 C 9.472656 -57.550781 11.648438 -58.753906 14.765625 -60.078125 C 17.890625 -61.410156 21.382812 -62.554688 25.25 -63.515625 C 29.113281 -64.472656 32.832031 -64.953125 36.40625 -64.953125 C 43.300781 -64.953125 48.078125 -63.910156 50.734375 -61.828125 L 50.734375 -48.234375 C 47.410156 -48.984375 42.632812 -49.359375 36.40625 -49.359375 C 32.5 -49.359375 29.296875 -49.148438 26.796875 -48.734375 L 26.796875 0 L 8.234375 0 Z M 8.234375 -56.46875 "/></g></g></g><g fill="#c9e7e5" fill-opacity="1"><g transform="translate(179.131053, 264.990506)"><g><path d="M 34.03125 2.5 C 26.800781 2.5 21.378906 0.796875 17.765625 -2.609375 C 14.148438 -6.023438 12.34375 -10.929688 12.34375 -17.328125 L 12.34375 -48.859375 L 3.109375 -48.859375 L 3.109375 -63.078125 L 12.34375 -63.078125 L 12.34375 -80.40625 L 31.78125 -80.40625 L 31.78125 -63.078125 L 45.625 -63.078125 L 45.625 -48.859375 L 31.78125 -48.859375 L 31.78125 -19.703125 C 31.78125 -17.535156 32.238281 -15.929688 33.15625 -14.890625 C 34.070312 -13.859375 35.609375 -13.34375 37.765625 -13.34375 C 39.097656 -13.34375 40.46875 -13.566406 41.875 -14.015625 C 43.289062 -14.472656 44.539062 -15.117188 45.625 -15.953125 L 45.625 -0.125 C 42.46875 1.625 38.601562 2.5 34.03125 2.5 Z M 34.03125 2.5 "/></g></g></g><g fill="#c9e7e5" fill-opacity="1"><g transform="translate(230.608438, 264.990506)"><g><path d="M 36.65625 1.875 C 26.007812 1.875 18.023438 -0.945312 12.703125 -6.59375 C 7.390625 -12.25 4.734375 -20.644531 4.734375 -31.78125 C 4.734375 -43.414062 7.367188 -51.890625 12.640625 -57.203125 C 17.921875 -62.523438 25.925781 -65.1875 36.65625 -65.1875 C 47.375 -65.1875 55.429688 -62.460938 60.828125 -57.015625 C 66.234375 -51.578125 68.9375 -43.164062 68.9375 -31.78125 C 68.9375 -20.8125 66.148438 -12.457031 60.578125 -6.71875 C 55.015625 -0.988281 47.039062 1.875 36.65625 1.875 Z M 36.65625 -12.96875 C 41.21875 -12.96875 44.660156 -14.566406 46.984375 -17.765625 C 49.316406 -20.960938 50.484375 -25.632812 50.484375 -31.78125 C 50.484375 -38.519531 49.335938 -43.320312 47.046875 -46.1875 C 44.765625 -49.050781 41.300781 -50.484375 36.65625 -50.484375 C 31.832031 -50.484375 28.359375 -49.050781 26.234375 -46.1875 C 24.117188 -43.320312 23.0625 -38.519531 23.0625 -31.78125 C 23.0625 -25.382812 24.160156 -20.648438 26.359375 -17.578125 C 28.566406 -14.503906 32 -12.96875 36.65625 -12.96875 Z M 36.65625 -12.96875 "/></g></g></g><g fill="#c9e7e5" fill-opacity="1"><g transform="translate(304.147618, 264.990506)"><g><path d="M 8.234375 -57.71875 C 11.472656 -59.457031 16.414062 -61.078125 23.0625 -62.578125 C 29.707031 -64.078125 35.648438 -64.828125 40.890625 -64.828125 C 49.773438 -64.828125 56.460938 -63.078125 60.953125 -59.578125 C 65.441406 -56.085938 67.6875 -50.359375 67.6875 -42.390625 L 67.6875 0 L 49.109375 0 L 49.109375 -38.640625 C 49.109375 -45.867188 45.035156 -49.484375 36.890625 -49.484375 C 35.066406 -49.484375 33.195312 -49.273438 31.28125 -48.859375 C 29.375 -48.441406 27.878906 -47.945312 26.796875 -47.375 L 26.796875 0 L 8.234375 0 Z M 8.234375 -57.71875 "/></g></g></g></svg>